<?xml version="1.0" encoding="UTF-8" standalone="no"?>
<!DOCTYPE svg PUBLIC "-//W3C//DTD SVG 1.1//EN" "http://www.w3.org/Graphics/SVG/1.1/DTD/svg11.dtd">
<svg width="100%" height="100%" viewBox="0 0 40 40" version="1.1" xmlns="http://www.w3.org/2000/svg" xmlns:xlink="http://www.w3.org/1999/xlink" xml:space="preserve" xmlns:serif="http://www.serif.com/" style="fill-rule:evenodd;clip-rule:evenodd;stroke-linejoin:round;stroke-miterlimit:2;">
    <g transform="matrix(0.666667,0,0,0.666667,-15,-15)">
        <rect x="22.5" y="22.5" width="60" height="60" style="fill-rule:nonzero;"/>
        <g>
            <rect x="29.03" y="71.25" width="22.5" height="3.75" style="fill:white;fill-rule:nonzero;"/>
        </g>
    </g>
    <g transform="matrix(0.055626,0,0,0.055626,-2.02111,1.7792)">
        <path d="M194.485,57.901C155.892,57.901 124.607,89.187 124.607,127.779C124.607,166.372 155.892,197.66 194.485,197.66C233.078,197.66 264.363,166.372 264.363,127.779C264.363,89.187 233.078,57.901 194.485,57.901ZM194.485,156.667C178.532,156.667 165.599,143.733 165.599,127.78C165.599,111.827 178.532,98.894 194.485,98.894C210.438,98.894 223.371,111.827 223.371,127.78C223.371,143.733 210.438,156.667 194.485,156.667Z" style="fill:white;fill-rule:nonzero;"/>
        <g>
            <path d="M219.155,253.262C247.13,247.563 263.894,234.315 264.781,233.604C272.967,227.039 274.282,215.081 267.717,206.894C261.153,198.708 249.196,197.393 241.008,203.957C240.835,204.097 222.955,217.813 193.536,217.833C164.118,217.813 145.86,204.097 145.687,203.957C137.499,197.393 125.542,198.708 118.978,206.894C112.413,215.081 113.728,227.039 121.914,233.604C122.813,234.325 140.269,247.918 169.028,253.483L128.947,295.371C121.663,302.925 121.882,314.953 129.436,322.237C133.123,325.792 137.875,327.559 142.623,327.559C147.601,327.559 152.574,325.614 156.302,321.747L193.537,282.082L234.533,322.004C241.961,329.42 253.989,329.408 261.403,321.983C268.817,314.557 268.808,302.527 261.382,295.113L219.155,253.262Z" style="fill:white;fill-rule:nonzero;"/>
            <path d="M193.536,217.832C193.489,217.832 193.582,217.833 193.536,217.834C193.49,217.833 193.583,217.832 193.536,217.832Z" style="fill:white;fill-rule:nonzero;"/>
        </g>
    </g>
</svg>
