<svg width="224" height="224" viewBox="0 0 224 224" fill="none" xmlns="http://www.w3.org/2000/svg">
<g clip-path="url(#clip0_1007_4036)">
<path d="M222.97 1.2417C222.97 1.2417 204.557 -0.481746 178.728 0.132239C178.007 0.149379 176.897 0.189277 176.134 0.21283C146.686 1.12218 109.455 4.80638 76.7354 16.9158C75.752 17.2797 73.5572 18.0375 72.1429 18.5955C54.7159 25.4702 38.8453 34.7882 26.6373 47.3715C-11.5364 86.7188 -8.28191 151.729 33.8381 192.51C75.9581 233.291 141.416 234.804 179.167 195.051C183.306 190.693 187.071 185.907 190.495 180.782C232.993 117.168 222.97 1.2417 222.97 1.2417Z" fill="url(#paint0_radial_1007_4036)"/>
<path d="M222.97 1.2417C222.97 1.2417 204.557 -0.481746 178.728 0.132239C178.007 0.149379 176.897 0.189277 176.134 0.21283C146.686 1.12218 109.455 4.80638 76.7354 16.9158C75.752 17.2797 73.5572 18.0375 72.1429 18.5955C54.7159 25.4702 38.8453 34.7882 26.6373 47.3715C-11.5364 86.7188 -8.28191 151.729 33.8381 192.51C75.9581 233.291 141.416 234.804 179.167 195.051C183.306 190.693 187.071 185.907 190.495 180.782C232.993 117.168 222.97 1.2417 222.97 1.2417Z" fill="url(#paint1_radial_1007_4036)"/>
<path d="M222.97 1.2417C222.97 1.2417 204.557 -0.481746 178.728 0.132239C178.007 0.149379 176.897 0.189277 176.134 0.21283C146.686 1.12218 109.455 4.80638 76.7354 16.9158C75.752 17.2797 73.5572 18.0375 72.1429 18.5955C54.7159 25.4702 38.8453 34.7882 26.6373 47.3715C-11.5364 86.7188 -8.28191 151.729 33.8381 192.51C75.9581 233.291 141.416 234.804 179.167 195.051C183.306 190.693 187.071 185.907 190.495 180.782C232.993 117.168 222.97 1.2417 222.97 1.2417Z" fill="url(#paint2_linear_1007_4036)"/>
<path d="M222.053 1.55391C221.981 1.55095 204.037 -0.0435525 178.912 1.40442C178.211 1.44469 177.133 1.51814 176.393 1.56545C149.71 3.26708 116.657 7.22603 86.7997 16.9575C84.3055 18.3484 81.109 20.1427 80.8772 20.2317C78.1202 21.7387 75.4534 23.3466 72.9082 25.0767C39.0159 48.1189 30.041 88.8183 54.0911 116.513C79.0527 145.257 129.42 148.674 164.624 122.925C168.447 120.128 172.032 117.038 175.389 113.716C205.175 84.2514 216.509 37.359 220.392 14.484C221.461 8.19041 222.01 1.97978 222.053 1.55391Z" fill="url(#paint3_radial_1007_4036)"/>
<path d="M222.053 1.55391C221.981 1.55095 204.037 -0.0435525 178.912 1.40442C178.211 1.44469 177.133 1.51814 176.393 1.56545C149.71 3.26708 116.657 7.22603 86.7997 16.9575C84.3055 18.3484 81.109 20.1427 80.8772 20.2317C78.1202 21.7387 75.4534 23.3466 72.9082 25.0767C39.0159 48.1189 30.041 88.8183 54.0911 116.513C79.0527 145.257 129.42 148.674 164.624 122.925C168.447 120.128 172.032 117.038 175.389 113.716C205.175 84.2514 216.509 37.359 220.392 14.484C221.461 8.19041 222.01 1.97978 222.053 1.55391Z" fill="url(#paint4_radial_1007_4036)"/>
<path d="M220.392 14.4848C221.346 8.86578 221.884 3.32544 222.02 1.89648C217.922 3.13059 213.022 4.62711 209.402 5.80556C181.253 15.0696 145.158 29.5516 116.22 49.834C103.606 59.1005 93.1635 69.4933 86.7243 81.0098C77.5407 97.4341 75.0944 118.009 82.1416 135.287C90.9729 138.527 100.578 140.217 110.39 140.302C110.556 140.304 110.722 140.301 110.888 140.301C111.982 140.305 113.079 140.284 114.177 140.248C114.936 140.221 115.695 140.192 116.456 140.146C116.784 140.126 117.112 140.103 117.441 140.08C133.862 138.908 150.468 133.279 164.623 122.925C168.447 120.128 172.031 117.039 175.388 113.717C205.175 84.2522 216.509 37.3598 220.392 14.4848Z" fill="url(#paint5_radial_1007_4036)"/>
</g>
<defs>
<radialGradient id="paint0_radial_1007_4036" cx="0" cy="0" r="1" gradientUnits="userSpaceOnUse" gradientTransform="translate(68.3048 56.4919) scale(197.78 197.782)">
<stop offset="0.30165" stop-color="#FF82F3"/>
<stop offset="0.49568" stop-color="#EB68ED"/>
<stop offset="0.69362" stop-color="#9062F8"/>
<stop offset="0.73307" stop-color="#8262F7"/>
<stop offset="0.80674" stop-color="#5E62F6"/>
<stop offset="0.81769" stop-color="#5962F6"/>
<stop offset="0.9635" stop-color="#00A8FF"/>
</radialGradient>
<radialGradient id="paint1_radial_1007_4036" cx="0" cy="0" r="1" gradientUnits="userSpaceOnUse" gradientTransform="translate(68.6498 96.281) scale(82.657 82.6577)">
<stop offset="0.10925" stop-color="#E8DFEF"/>
<stop offset="0.21914" stop-color="#E7DBEE" stop-opacity="0.98131"/>
<stop offset="0.34002" stop-color="#E7D2EE" stop-opacity="0.92618"/>
<stop offset="0.46615" stop-color="#E7C2EE" stop-opacity="0.8345"/>
<stop offset="0.59589" stop-color="#E6ACEE" stop-opacity="0.70615"/>
<stop offset="0.72848" stop-color="#E590ED" stop-opacity="0.54092"/>
<stop offset="0.86335" stop-color="#E56DED" stop-opacity="0.33881"/>
<stop offset="0.99776" stop-color="#E445ED" stop-opacity="0.10418"/>
<stop offset="1" stop-color="#E445ED" stop-opacity="0.1"/>
</radialGradient>
<linearGradient id="paint2_linear_1007_4036" x1="202.311" y1="153.155" x2="174.59" y2="132.251" gradientUnits="userSpaceOnUse">
<stop stop-color="#00BAFF" stop-opacity="0.4"/>
<stop offset="0.05122" stop-color="#09B3FD" stop-opacity="0.37085"/>
<stop offset="0.43101" stop-color="#4987F4" stop-opacity="0.17092"/>
<stop offset="0.71808" stop-color="#716CEF" stop-opacity="0.04671"/>
<stop offset="0.8771" stop-color="#8062ED" stop-opacity="0"/>
</linearGradient>
<radialGradient id="paint3_radial_1007_4036" cx="0" cy="0" r="1" gradientUnits="userSpaceOnUse" gradientTransform="translate(188.633 251.099) scale(286.333 286.336)">
<stop offset="0.30165" stop-color="#FF82F3"/>
<stop offset="0.59857" stop-color="#FF71ED"/>
<stop offset="0.75633" stop-color="#BA5CF8"/>
<stop offset="0.78879" stop-color="#AC5EF7"/>
<stop offset="0.84963" stop-color="#8866F6"/>
<stop offset="0.93176" stop-color="#4F72F5"/>
<stop offset="0.9414" stop-color="#4874F5"/>
</radialGradient>
<radialGradient id="paint4_radial_1007_4036" cx="0" cy="0" r="1" gradientUnits="userSpaceOnUse" gradientTransform="translate(131.294 122.308) scale(103.954 103.955)">
<stop offset="0.10925" stop-color="#FFC8FB"/>
<stop offset="0.20035" stop-color="#FEC5FA" stop-opacity="0.98261"/>
<stop offset="0.30057" stop-color="#FCBDF9" stop-opacity="0.93128"/>
<stop offset="0.40515" stop-color="#FAB1F8" stop-opacity="0.84593"/>
<stop offset="0.51276" stop-color="#F6A0F6" stop-opacity="0.7264"/>
<stop offset="0.62267" stop-color="#F289F4" stop-opacity="0.5726"/>
<stop offset="0.73452" stop-color="#EC6EF1" stop-opacity="0.38437"/>
<stop offset="0.84591" stop-color="#E54EEE" stop-opacity="0.16606"/>
<stop offset="0.87687" stop-color="#E445ED" stop-opacity="0.1"/>
</radialGradient>
<radialGradient id="paint5_radial_1007_4036" cx="0" cy="0" r="1" gradientUnits="userSpaceOnUse" gradientTransform="translate(156.895 146.598) scale(89.3786 89.3794)">
<stop offset="0.2932" stop-color="#FFDFFB" stop-opacity="0.97"/>
<stop offset="0.3555" stop-color="#FFD7F9" stop-opacity="0.89766"/>
<stop offset="0.4812" stop-color="#FFC3F7" stop-opacity="0.70947"/>
<stop offset="0.65902" stop-color="#FFA3F2" stop-opacity="0.40609"/>
<stop offset="0.8771" stop-color="#FF79ED" stop-opacity="0"/>
</radialGradient>
<clipPath id="clip0_1007_4036">
<rect width="224" height="224" fill="white"/>
</clipPath>
</defs>
</svg>
